<mxfile host="app.diagrams.net" modified="2022-07-27T02:41:05.067Z" agent="5.0 (Windows NT 10.0; Win64; x64) AppleWebKit/537.36 (KHTML, like Gecko) Chrome/103.0.0.0 Safari/537.36" etag="M-IslmjXTfO3PptOa_Pk" version="20.2.1" type="github">
  <diagram id="C5RBs43oDa-KdzZeNtuy" name="Page-1">
    <mxGraphModel dx="1185" dy="662" grid="1" gridSize="10" guides="1" tooltips="1" connect="1" arrows="1" fold="1" page="1" pageScale="1" pageWidth="3300" pageHeight="4681" math="0" shadow="0">
      <root>
        <mxCell id="WIyWlLk6GJQsqaUBKTNV-0" />
        <mxCell id="WIyWlLk6GJQsqaUBKTNV-1" parent="WIyWlLk6GJQsqaUBKTNV-0" />
        <mxCell id="WIyWlLk6GJQsqaUBKTNV-2" value="" style="rounded=0;html=1;jettySize=auto;orthogonalLoop=1;fontSize=11;endArrow=block;endFill=0;endSize=8;strokeWidth=1;shadow=0;labelBackgroundColor=none;edgeStyle=orthogonalEdgeStyle;" parent="WIyWlLk6GJQsqaUBKTNV-1" source="WIyWlLk6GJQsqaUBKTNV-3" target="WIyWlLk6GJQsqaUBKTNV-6" edge="1">
          <mxGeometry relative="1" as="geometry" />
        </mxCell>
        <mxCell id="WIyWlLk6GJQsqaUBKTNV-3" value="提取钓鱼邮件样本" style="rounded=1;whiteSpace=wrap;html=1;fontSize=12;glass=0;strokeWidth=1;shadow=0;" parent="WIyWlLk6GJQsqaUBKTNV-1" vertex="1">
          <mxGeometry x="195" y="80" width="120" height="40" as="geometry" />
        </mxCell>
        <mxCell id="WIyWlLk6GJQsqaUBKTNV-4" value="否" style="rounded=0;html=1;jettySize=auto;orthogonalLoop=1;fontSize=11;endArrow=block;endFill=0;endSize=8;strokeWidth=1;shadow=0;labelBackgroundColor=none;edgeStyle=orthogonalEdgeStyle;" parent="WIyWlLk6GJQsqaUBKTNV-1" source="WIyWlLk6GJQsqaUBKTNV-6" target="WIyWlLk6GJQsqaUBKTNV-10" edge="1">
          <mxGeometry y="20" relative="1" as="geometry">
            <mxPoint as="offset" />
          </mxGeometry>
        </mxCell>
        <mxCell id="WIyWlLk6GJQsqaUBKTNV-5" value="是" style="edgeStyle=orthogonalEdgeStyle;rounded=0;html=1;jettySize=auto;orthogonalLoop=1;fontSize=11;endArrow=block;endFill=0;endSize=8;strokeWidth=1;shadow=0;labelBackgroundColor=none;entryX=0;entryY=0.5;entryDx=0;entryDy=0;" parent="WIyWlLk6GJQsqaUBKTNV-1" target="w-1AuRUiIMmXYwYWWFo2-4" edge="1">
          <mxGeometry y="10" relative="1" as="geometry">
            <mxPoint as="offset" />
            <mxPoint x="340" y="210" as="sourcePoint" />
            <mxPoint x="414" y="210" as="targetPoint" />
          </mxGeometry>
        </mxCell>
        <mxCell id="WIyWlLk6GJQsqaUBKTNV-6" value="钓鱼邮件包含恶意链接？" style="rhombus;whiteSpace=wrap;html=1;shadow=0;fontFamily=Helvetica;fontSize=12;align=center;strokeWidth=1;spacing=6;spacingTop=-4;" parent="WIyWlLk6GJQsqaUBKTNV-1" vertex="1">
          <mxGeometry x="170" y="170" width="170" height="80" as="geometry" />
        </mxCell>
        <mxCell id="w-1AuRUiIMmXYwYWWFo2-34" style="edgeStyle=orthogonalEdgeStyle;rounded=0;orthogonalLoop=1;jettySize=auto;html=1;exitX=1;exitY=0.5;exitDx=0;exitDy=0;entryX=0;entryY=0.5;entryDx=0;entryDy=0;fontSize=11;endArrow=block;endFill=0;endSize=8;" edge="1" parent="WIyWlLk6GJQsqaUBKTNV-1" source="WIyWlLk6GJQsqaUBKTNV-10" target="w-1AuRUiIMmXYwYWWFo2-33">
          <mxGeometry relative="1" as="geometry" />
        </mxCell>
        <mxCell id="WIyWlLk6GJQsqaUBKTNV-10" value="钓鱼邮件是否包含可执行附件" style="rhombus;whiteSpace=wrap;html=1;shadow=0;fontFamily=Helvetica;fontSize=12;align=center;strokeWidth=1;spacing=6;spacingTop=-4;" parent="WIyWlLk6GJQsqaUBKTNV-1" vertex="1">
          <mxGeometry x="150" y="660" width="210" height="80" as="geometry" />
        </mxCell>
        <mxCell id="w-1AuRUiIMmXYwYWWFo2-4" value="查询恶意链接域名IP地址" style="rounded=1;whiteSpace=wrap;html=1;fontSize=12;glass=0;strokeWidth=1;shadow=0;" vertex="1" parent="WIyWlLk6GJQsqaUBKTNV-1">
          <mxGeometry x="480" y="190" width="120" height="40" as="geometry" />
        </mxCell>
        <mxCell id="w-1AuRUiIMmXYwYWWFo2-16" value="" style="edgeStyle=orthogonalEdgeStyle;rounded=0;orthogonalLoop=1;jettySize=auto;html=1;endArrow=block;endFill=0;endSize=8;" edge="1" parent="WIyWlLk6GJQsqaUBKTNV-1" source="w-1AuRUiIMmXYwYWWFo2-7" target="w-1AuRUiIMmXYwYWWFo2-14">
          <mxGeometry relative="1" as="geometry" />
        </mxCell>
        <mxCell id="w-1AuRUiIMmXYwYWWFo2-7" value="公司办公网出向封禁该IP地址" style="rounded=1;whiteSpace=wrap;html=1;fontSize=12;glass=0;strokeWidth=1;shadow=0;" vertex="1" parent="WIyWlLk6GJQsqaUBKTNV-1">
          <mxGeometry x="480" y="260" width="120" height="40" as="geometry" />
        </mxCell>
        <mxCell id="w-1AuRUiIMmXYwYWWFo2-8" value="" style="rounded=0;html=1;jettySize=auto;orthogonalLoop=1;fontSize=11;endArrow=block;endFill=0;endSize=8;strokeWidth=1;shadow=0;labelBackgroundColor=none;edgeStyle=orthogonalEdgeStyle;exitX=0.5;exitY=1;exitDx=0;exitDy=0;" edge="1" parent="WIyWlLk6GJQsqaUBKTNV-1" source="w-1AuRUiIMmXYwYWWFo2-4">
          <mxGeometry y="20" relative="1" as="geometry">
            <mxPoint as="offset" />
            <mxPoint x="265" y="260" as="sourcePoint" />
            <mxPoint x="540" y="260" as="targetPoint" />
          </mxGeometry>
        </mxCell>
        <mxCell id="w-1AuRUiIMmXYwYWWFo2-18" value="" style="edgeStyle=orthogonalEdgeStyle;rounded=0;orthogonalLoop=1;jettySize=auto;html=1;fontSize=11;endArrow=block;endFill=0;endSize=8;" edge="1" parent="WIyWlLk6GJQsqaUBKTNV-1" source="w-1AuRUiIMmXYwYWWFo2-10" target="w-1AuRUiIMmXYwYWWFo2-13">
          <mxGeometry relative="1" as="geometry" />
        </mxCell>
        <mxCell id="w-1AuRUiIMmXYwYWWFo2-10" value="是否已点击链接&lt;br&gt;填写账号" style="rhombus;whiteSpace=wrap;html=1;" vertex="1" parent="WIyWlLk6GJQsqaUBKTNV-1">
          <mxGeometry x="715" y="180" width="140" height="60" as="geometry" />
        </mxCell>
        <mxCell id="w-1AuRUiIMmXYwYWWFo2-12" value="" style="rounded=0;html=1;jettySize=auto;orthogonalLoop=1;fontSize=11;endArrow=block;endFill=0;endSize=8;strokeWidth=1;shadow=0;labelBackgroundColor=none;edgeStyle=orthogonalEdgeStyle;entryX=0;entryY=0.5;entryDx=0;entryDy=0;" edge="1" parent="WIyWlLk6GJQsqaUBKTNV-1" target="w-1AuRUiIMmXYwYWWFo2-10">
          <mxGeometry y="20" relative="1" as="geometry">
            <mxPoint as="offset" />
            <mxPoint x="600" y="210" as="sourcePoint" />
            <mxPoint x="550" y="269.9999999999999" as="targetPoint" />
          </mxGeometry>
        </mxCell>
        <mxCell id="w-1AuRUiIMmXYwYWWFo2-13" value="&lt;font style=&quot;font-size: 11px;&quot;&gt;立即修改账号密码及所有使用相同密码的账号。终端断网查杀病毒。&lt;/font&gt;" style="rounded=1;whiteSpace=wrap;html=1;fontSize=11;glass=0;strokeWidth=1;shadow=0;" vertex="1" parent="WIyWlLk6GJQsqaUBKTNV-1">
          <mxGeometry x="710" y="280" width="150" height="40" as="geometry" />
        </mxCell>
        <mxCell id="w-1AuRUiIMmXYwYWWFo2-23" style="edgeStyle=orthogonalEdgeStyle;rounded=0;orthogonalLoop=1;jettySize=auto;html=1;entryX=0.5;entryY=0;entryDx=0;entryDy=0;fontSize=11;endArrow=block;endFill=0;endSize=8;" edge="1" parent="WIyWlLk6GJQsqaUBKTNV-1" source="w-1AuRUiIMmXYwYWWFo2-14" target="w-1AuRUiIMmXYwYWWFo2-20">
          <mxGeometry relative="1" as="geometry" />
        </mxCell>
        <mxCell id="w-1AuRUiIMmXYwYWWFo2-26" style="edgeStyle=orthogonalEdgeStyle;rounded=0;orthogonalLoop=1;jettySize=auto;html=1;entryX=0;entryY=0.5;entryDx=0;entryDy=0;fontSize=11;endArrow=block;endFill=0;endSize=8;" edge="1" parent="WIyWlLk6GJQsqaUBKTNV-1" source="w-1AuRUiIMmXYwYWWFo2-14" target="w-1AuRUiIMmXYwYWWFo2-25">
          <mxGeometry relative="1" as="geometry" />
        </mxCell>
        <mxCell id="w-1AuRUiIMmXYwYWWFo2-14" value="&lt;font style=&quot;font-size: 9px;&quot;&gt;查询办公网DNS日志，&lt;br&gt;是否有人解析过此域名&lt;/font&gt;" style="rhombus;whiteSpace=wrap;html=1;fontSize=7;" vertex="1" parent="WIyWlLk6GJQsqaUBKTNV-1">
          <mxGeometry x="440" y="350" width="200" height="70" as="geometry" />
        </mxCell>
        <mxCell id="w-1AuRUiIMmXYwYWWFo2-19" value="是" style="text;html=1;align=center;verticalAlign=middle;resizable=0;points=[];autosize=1;strokeColor=none;fillColor=none;fontSize=11;" vertex="1" parent="WIyWlLk6GJQsqaUBKTNV-1">
          <mxGeometry x="785" y="245" width="40" height="30" as="geometry" />
        </mxCell>
        <mxCell id="w-1AuRUiIMmXYwYWWFo2-24" style="edgeStyle=orthogonalEdgeStyle;rounded=0;orthogonalLoop=1;jettySize=auto;html=1;entryX=0.5;entryY=0;entryDx=0;entryDy=0;fontSize=11;endArrow=block;endFill=0;endSize=8;" edge="1" parent="WIyWlLk6GJQsqaUBKTNV-1" source="w-1AuRUiIMmXYwYWWFo2-20" target="w-1AuRUiIMmXYwYWWFo2-21">
          <mxGeometry relative="1" as="geometry" />
        </mxCell>
        <mxCell id="w-1AuRUiIMmXYwYWWFo2-20" value="报告集团总指挥中心" style="rounded=1;whiteSpace=wrap;html=1;fontSize=12;glass=0;strokeWidth=1;shadow=0;" vertex="1" parent="WIyWlLk6GJQsqaUBKTNV-1">
          <mxGeometry x="480" y="460" width="120" height="40" as="geometry" />
        </mxCell>
        <mxCell id="w-1AuRUiIMmXYwYWWFo2-31" style="edgeStyle=orthogonalEdgeStyle;rounded=0;orthogonalLoop=1;jettySize=auto;html=1;entryX=0;entryY=0.5;entryDx=0;entryDy=0;fontSize=11;endArrow=block;endFill=0;endSize=8;" edge="1" parent="WIyWlLk6GJQsqaUBKTNV-1" source="w-1AuRUiIMmXYwYWWFo2-21" target="w-1AuRUiIMmXYwYWWFo2-30">
          <mxGeometry relative="1" as="geometry" />
        </mxCell>
        <mxCell id="w-1AuRUiIMmXYwYWWFo2-21" value="发送全员钓鱼邮件预警通知，通知部门安全接口人传达到每个员工" style="rounded=1;whiteSpace=wrap;html=1;fontSize=12;glass=0;strokeWidth=1;shadow=0;" vertex="1" parent="WIyWlLk6GJQsqaUBKTNV-1">
          <mxGeometry x="480" y="530" width="120" height="70" as="geometry" />
        </mxCell>
        <mxCell id="w-1AuRUiIMmXYwYWWFo2-29" style="edgeStyle=orthogonalEdgeStyle;rounded=0;orthogonalLoop=1;jettySize=auto;html=1;entryX=1;entryY=0.5;entryDx=0;entryDy=0;fontSize=11;endArrow=block;endFill=0;endSize=8;" edge="1" parent="WIyWlLk6GJQsqaUBKTNV-1" source="w-1AuRUiIMmXYwYWWFo2-25" target="w-1AuRUiIMmXYwYWWFo2-20">
          <mxGeometry relative="1" as="geometry">
            <Array as="points">
              <mxPoint x="785" y="480" />
            </Array>
          </mxGeometry>
        </mxCell>
        <mxCell id="w-1AuRUiIMmXYwYWWFo2-25" value="根据IP地址查询办公网账号，定位到人，联系确认其点击情况" style="rounded=1;whiteSpace=wrap;html=1;fontSize=11;glass=0;strokeWidth=1;shadow=0;" vertex="1" parent="WIyWlLk6GJQsqaUBKTNV-1">
          <mxGeometry x="710" y="365" width="150" height="40" as="geometry" />
        </mxCell>
        <mxCell id="w-1AuRUiIMmXYwYWWFo2-27" value="是" style="text;html=1;align=center;verticalAlign=middle;resizable=0;points=[];autosize=1;strokeColor=none;fillColor=none;fontSize=11;" vertex="1" parent="WIyWlLk6GJQsqaUBKTNV-1">
          <mxGeometry x="650" y="355" width="40" height="30" as="geometry" />
        </mxCell>
        <mxCell id="w-1AuRUiIMmXYwYWWFo2-28" value="否" style="text;html=1;align=center;verticalAlign=middle;resizable=0;points=[];autosize=1;strokeColor=none;fillColor=none;fontSize=11;" vertex="1" parent="WIyWlLk6GJQsqaUBKTNV-1">
          <mxGeometry x="530" y="425" width="40" height="30" as="geometry" />
        </mxCell>
        <mxCell id="w-1AuRUiIMmXYwYWWFo2-30" value="开始溯源分析" style="rounded=1;whiteSpace=wrap;html=1;fontSize=12;glass=0;strokeWidth=1;shadow=0;" vertex="1" parent="WIyWlLk6GJQsqaUBKTNV-1">
          <mxGeometry x="665" y="545" width="120" height="40" as="geometry" />
        </mxCell>
        <mxCell id="w-1AuRUiIMmXYwYWWFo2-39" value="" style="edgeStyle=orthogonalEdgeStyle;rounded=0;orthogonalLoop=1;jettySize=auto;html=1;fontSize=11;endArrow=block;endFill=0;endSize=8;" edge="1" parent="WIyWlLk6GJQsqaUBKTNV-1" source="w-1AuRUiIMmXYwYWWFo2-33" target="w-1AuRUiIMmXYwYWWFo2-38">
          <mxGeometry relative="1" as="geometry" />
        </mxCell>
        <mxCell id="w-1AuRUiIMmXYwYWWFo2-33" value="分析其文件中的文本、符号信息，找到域名、IP地址等信息" style="rounded=1;whiteSpace=wrap;html=1;fontSize=12;glass=0;strokeWidth=1;shadow=0;" vertex="1" parent="WIyWlLk6GJQsqaUBKTNV-1">
          <mxGeometry x="480" y="680" width="120" height="40" as="geometry" />
        </mxCell>
        <mxCell id="w-1AuRUiIMmXYwYWWFo2-35" value="是" style="text;html=1;align=center;verticalAlign=middle;resizable=0;points=[];autosize=1;strokeColor=none;fillColor=none;fontSize=11;" vertex="1" parent="WIyWlLk6GJQsqaUBKTNV-1">
          <mxGeometry x="400" y="670" width="40" height="30" as="geometry" />
        </mxCell>
        <mxCell id="w-1AuRUiIMmXYwYWWFo2-41" value="" style="edgeStyle=orthogonalEdgeStyle;rounded=0;orthogonalLoop=1;jettySize=auto;html=1;fontSize=11;endArrow=block;endFill=0;endSize=8;" edge="1" parent="WIyWlLk6GJQsqaUBKTNV-1" source="w-1AuRUiIMmXYwYWWFo2-38" target="w-1AuRUiIMmXYwYWWFo2-40">
          <mxGeometry relative="1" as="geometry" />
        </mxCell>
        <mxCell id="w-1AuRUiIMmXYwYWWFo2-38" value="公司办公网出向封禁IP地址" style="rounded=1;whiteSpace=wrap;html=1;fontSize=12;glass=0;strokeWidth=1;shadow=0;" vertex="1" parent="WIyWlLk6GJQsqaUBKTNV-1">
          <mxGeometry x="480" y="760" width="120" height="40" as="geometry" />
        </mxCell>
        <mxCell id="w-1AuRUiIMmXYwYWWFo2-45" style="edgeStyle=orthogonalEdgeStyle;rounded=0;orthogonalLoop=1;jettySize=auto;html=1;entryX=0.5;entryY=0;entryDx=0;entryDy=0;fontSize=11;endArrow=block;endFill=0;endSize=8;" edge="1" parent="WIyWlLk6GJQsqaUBKTNV-1" source="w-1AuRUiIMmXYwYWWFo2-40" target="w-1AuRUiIMmXYwYWWFo2-44">
          <mxGeometry relative="1" as="geometry" />
        </mxCell>
        <mxCell id="w-1AuRUiIMmXYwYWWFo2-40" value="查询公司办公网DNS日志，办公网防火墙日志，是否有人解析过域名或连结过该IP地址" style="rounded=1;whiteSpace=wrap;html=1;fontSize=12;glass=0;strokeWidth=1;shadow=0;" vertex="1" parent="WIyWlLk6GJQsqaUBKTNV-1">
          <mxGeometry x="450" y="840" width="180" height="60" as="geometry" />
        </mxCell>
        <mxCell id="w-1AuRUiIMmXYwYWWFo2-50" value="" style="edgeStyle=orthogonalEdgeStyle;rounded=0;orthogonalLoop=1;jettySize=auto;html=1;fontSize=11;endArrow=block;endFill=0;endSize=8;" edge="1" parent="WIyWlLk6GJQsqaUBKTNV-1" source="w-1AuRUiIMmXYwYWWFo2-44" target="w-1AuRUiIMmXYwYWWFo2-49">
          <mxGeometry relative="1" as="geometry" />
        </mxCell>
        <mxCell id="w-1AuRUiIMmXYwYWWFo2-57" style="edgeStyle=orthogonalEdgeStyle;rounded=0;orthogonalLoop=1;jettySize=auto;html=1;entryX=0.5;entryY=0;entryDx=0;entryDy=0;fontSize=11;endArrow=block;endFill=0;endSize=8;" edge="1" parent="WIyWlLk6GJQsqaUBKTNV-1" source="w-1AuRUiIMmXYwYWWFo2-44" target="w-1AuRUiIMmXYwYWWFo2-55">
          <mxGeometry relative="1" as="geometry" />
        </mxCell>
        <mxCell id="w-1AuRUiIMmXYwYWWFo2-44" value="有人访问过" style="rhombus;whiteSpace=wrap;html=1;shadow=0;fontFamily=Helvetica;fontSize=12;align=center;strokeWidth=1;spacing=6;spacingTop=-4;" vertex="1" parent="WIyWlLk6GJQsqaUBKTNV-1">
          <mxGeometry x="435" y="930" width="210" height="80" as="geometry" />
        </mxCell>
        <mxCell id="w-1AuRUiIMmXYwYWWFo2-52" value="" style="edgeStyle=orthogonalEdgeStyle;rounded=0;orthogonalLoop=1;jettySize=auto;html=1;fontSize=11;endArrow=block;endFill=0;endSize=8;" edge="1" parent="WIyWlLk6GJQsqaUBKTNV-1" source="w-1AuRUiIMmXYwYWWFo2-49" target="w-1AuRUiIMmXYwYWWFo2-51">
          <mxGeometry relative="1" as="geometry" />
        </mxCell>
        <mxCell id="w-1AuRUiIMmXYwYWWFo2-49" value="通过IP地址定位到人" style="rounded=1;whiteSpace=wrap;html=1;shadow=0;strokeWidth=1;spacing=6;spacingTop=-4;" vertex="1" parent="WIyWlLk6GJQsqaUBKTNV-1">
          <mxGeometry x="705" y="950" width="120" height="40" as="geometry" />
        </mxCell>
        <mxCell id="w-1AuRUiIMmXYwYWWFo2-54" value="" style="edgeStyle=orthogonalEdgeStyle;rounded=0;orthogonalLoop=1;jettySize=auto;html=1;fontSize=11;endArrow=block;endFill=0;endSize=8;" edge="1" parent="WIyWlLk6GJQsqaUBKTNV-1" source="w-1AuRUiIMmXYwYWWFo2-51" target="w-1AuRUiIMmXYwYWWFo2-53">
          <mxGeometry relative="1" as="geometry" />
        </mxCell>
        <mxCell id="w-1AuRUiIMmXYwYWWFo2-51" value="终端断网" style="whiteSpace=wrap;html=1;rounded=1;shadow=0;strokeWidth=1;spacing=6;spacingTop=-4;" vertex="1" parent="WIyWlLk6GJQsqaUBKTNV-1">
          <mxGeometry x="880" y="950" width="120" height="40" as="geometry" />
        </mxCell>
        <mxCell id="w-1AuRUiIMmXYwYWWFo2-53" value="询问其附件运行情况，提取样本，进行溯源分析" style="whiteSpace=wrap;html=1;rounded=1;shadow=0;strokeWidth=1;spacing=6;spacingTop=-4;" vertex="1" parent="WIyWlLk6GJQsqaUBKTNV-1">
          <mxGeometry x="880" y="1055" width="120" height="50" as="geometry" />
        </mxCell>
        <mxCell id="w-1AuRUiIMmXYwYWWFo2-58" style="edgeStyle=orthogonalEdgeStyle;rounded=0;orthogonalLoop=1;jettySize=auto;html=1;entryX=0.5;entryY=0;entryDx=0;entryDy=0;fontSize=11;endArrow=block;endFill=0;endSize=8;" edge="1" parent="WIyWlLk6GJQsqaUBKTNV-1" source="w-1AuRUiIMmXYwYWWFo2-55" target="w-1AuRUiIMmXYwYWWFo2-56">
          <mxGeometry relative="1" as="geometry" />
        </mxCell>
        <mxCell id="w-1AuRUiIMmXYwYWWFo2-55" value="报告集团总指挥中心" style="rounded=1;whiteSpace=wrap;html=1;fontSize=12;glass=0;strokeWidth=1;shadow=0;" vertex="1" parent="WIyWlLk6GJQsqaUBKTNV-1">
          <mxGeometry x="480" y="1060" width="120" height="40" as="geometry" />
        </mxCell>
        <mxCell id="w-1AuRUiIMmXYwYWWFo2-61" value="" style="edgeStyle=orthogonalEdgeStyle;rounded=0;orthogonalLoop=1;jettySize=auto;html=1;fontSize=11;endArrow=block;endFill=0;endSize=8;" edge="1" parent="WIyWlLk6GJQsqaUBKTNV-1" source="w-1AuRUiIMmXYwYWWFo2-56" target="w-1AuRUiIMmXYwYWWFo2-60">
          <mxGeometry relative="1" as="geometry" />
        </mxCell>
        <mxCell id="w-1AuRUiIMmXYwYWWFo2-56" value="发送全员钓鱼邮件预警通知，通知部门安全接口人传达到每个员工" style="rounded=1;whiteSpace=wrap;html=1;fontSize=12;glass=0;strokeWidth=1;shadow=0;" vertex="1" parent="WIyWlLk6GJQsqaUBKTNV-1">
          <mxGeometry x="480" y="1130" width="120" height="70" as="geometry" />
        </mxCell>
        <mxCell id="w-1AuRUiIMmXYwYWWFo2-60" value="溯源分析" style="rounded=1;whiteSpace=wrap;html=1;fontSize=12;glass=0;strokeWidth=1;shadow=0;" vertex="1" parent="WIyWlLk6GJQsqaUBKTNV-1">
          <mxGeometry x="680" y="1140" width="120" height="50" as="geometry" />
        </mxCell>
      </root>
    </mxGraphModel>
  </diagram>
</mxfile>
